# AST/ASF file generated using VICON BodyLanguage
# -----------------------------------------------
:version 1.10
:name VICON
:units
  mass 1.0
  length 0.45
  angle deg
:documentation
   .ast/.asf automatically generated from VICON data using
   VICON BodyBuilder and BodyLanguage model FoxedUp or BRILLIANT.MOD
:root
   order TX TY TZ RX RY RZ
   axis XYZ
   position 0 0 0  
   orientation 0 0 0 
:bonedata
  begin
     id 1 
     name lhipjoint
     direction 0.690799 -0.707083 0.151096 
     length 2.54797 
     axis 0 0 0  XYZ
  end
  begin
     id 2 
     name lfemur
     direction 0.34202 -0.939693 0  
     length 7.21646  
     axis 0 0 20  XYZ
    dof rx ry rz
    limits (-160.0 20.0)
           (-70.0 70.0)
           (-60.0 70.0)
  end
  begin
     id 3 
     name ltibia
     direction 0.34202 -0.939693 0   
     length 8.16759   
     axis 0 0 20   XYZ
    dof rx
    limits (-10.0 170.0)
  end
  begin
     id 4 
     name lfoot
     direction 0.0487203 -0.133858 0.989802   
     length 1.93375   
     axis -90 7.62852e-016 20   XYZ
    dof rx rz
    limits (-45.0 90.0)
           (-70.0 20.0)
  end
  begin
     id 5 
     name ltoes
     direction 1.53453e-011 -4.21783e-011 1   
     length 0.979747   
     axis -90 7.62852e-016 20   XYZ
    dof rx
    limits (-90.0 20.0)
  end
  begin
     id 6 
     name rhipjoint
     direction -0.694693 -0.703425 0.150315   
     length 2.56122  
     axis 0 0 0  XYZ 
  end
  begin
     id 7 
     name rfemur
     direction -0.34202 -0.939693 0   
     length 7.36786   
     axis 0 0 -20   XYZ
    dof rx ry rz
    limits (-160.0 20.0)
           (-70.0 70.0)
           (-70.0 60.0)
  end
  begin
     id 8 
     name rtibia
     direction -0.34202 -0.939693 0   
     length 8.07288   
     axis 0 0 -20   XYZ
    dof rx
    limits (-10.0 170.0)
 end
 begin
     id 9 
     name rfoot
     direction -0.0428397 -0.117701 0.992125   
     length 1.88295  
     axis -90 -7.62852e-016 -20   XYZ
    dof rx rz
    limits (-45.0 90.0)
           (-20.0 70.0)
  end
  begin
     id 10 
     name rtoes
     direction -1.53456e-011 -4.2187e-011 1   
     length 0.955578   
     axis -90 -7.62852e-016 -20   XYZ
    dof rx
    limits (-90.0 20.0)
  end
  begin
     id 11 
     name lowerback
     direction 0.0288145 0.999398 -0.0193241   
     length 1.92149   
     axis 0 0 0   XYZ
    dof rx ry rz
    limits (-20.0 45.0)
           (-30.0 30.0)
           (-30.0 30.0)
  end
  begin
     id 12 
     name upperback
     direction 0.0233784 0.998099 0.0570278   
     length 1.90435   
     axis 0 0 0   XYZ
    dof rx ry rz
    limits (-20.0 45.0)
           (-30.0 30.0)
           (-30.0 30.0)
  end
  begin
     id 13 
     name thorax
     direction 0.0096694 0.997833 0.0650817   
     length 1.9111   
     axis 0 0 0   XYZ
    dof rx ry rz
    limits (-20.0 45.0)
           (-30.0 30.0)
           (-30.0 30.0)
  end
  begin
     id 14 
     name lowerneck
     direction 0.00516803 0.999916 0.0118722   
     length 1.74664   
     axis 0 0 0   XYZ
    dof rx ry rz
    limits (-20.0 45.0)
           (-30.0 30.0)
           (-30.0 30.0)
  end
  begin
     id 15 
     name upperneck
     direction -0.0510851 0.996117 -0.071696   
     length 1.68498   
     axis 0 0 0   XYZ
    dof rx ry rz
    limits (-20.0 45.0)
           (-30.0 30.0)
           (-30.0 30.0)
  end
  begin
     id 16
     name head
     direction -0.019188 0.999436 -0.0275702  
     length 1.83483  
     axis 0 0 0   XYZ
    dof rx ry rz
    limits (-20.0 45.0)
           (-30.0 30.0)
           (-30.0 30.0)
  end
  begin
     id 17 
     name lclavicle
     direction 0.967006 0.248456 -0.0562957  
     length 3.39395  
     axis 0 0 0   XYZ
    dof ry rz
    limits (-20.0 10.0)
           (0.0 20.0)
  end
  begin
     id 18 
     name lhumerus
     direction 1 -4.48962e-011 -5.62711e-019   
     length 5.24318   
     axis 180 -30 -90   XYZ
    dof rx ry rz
    limits (-60.0 90.0)
           (-90.0 90.0)
           (-90.0 90.0)
  end
  begin
     id 19
     name lradius
     direction 1 -4.48966e-011 7.90625e-027   
     length 2.98999   
     axis 180 -30 -90   XYZ
    dof rx
    limits (-10.0 170.0)
  end
  begin
     id 20
     name lwrist
     direction 1 -4.48959e-011 1.61068e-026   
     length 1.49499   
     axis -9.31229e-015 90 90   XYZ
    dof ry
    limits (-180.0 0.0)
 end
  begin
     id 21 
     name lhand
     direction 1 -4.49017e-011 3.22136e-026   
     length 0.726745   
     axis -2.0555e-014 90 90   XYZ
    dof rx rz
    limits (-90.0 90.0)
           (-45.0 45.0)
  end
  begin
     id 22 
     name lfingers
     direction 1 -4.4898e-011 6.44272e-026   
     length 0.58592   
     axis -4.11101e-014 90 90   XYZ
    dof rx
    limits (0.0 90.0)
  end
  begin
     id 23
     name lthumb
     direction 0.707107 -6.34922e-011 0.707107   
     length 0.841268   
     axis -90 45 2.85299e-015   XYZ
    dof rx rz
    limits (-45.0 45.0)
           (-45.0 45.0)
  end
  begin
     id 24 
     name rclavicle
     direction -0.972232 0.230238 0.0419005   
     length 3.40416  
     axis 0 0 0   XYZ 
    dof ry rz
    limits (-10.0 20.0)
           (-20.0 0.0)
  end
  begin
     id 25 
     name rhumerus
     direction -1 -4.48976e-011 2.48487e-027  
     length 5.37045   
     axis 180 30 90   XYZ
    dof rx ry rz
    limits (-90.0 60.0)
           (-90.0 90.0)
           (-90.0 90.0)
  end
  begin
     id 26 
     name rradius
     direction -1 -4.48942e-011 7.87951e-027   
     length 2.92792   
     axis 180 30 90   XYZ
    dof rx
    limits (-10.0 170.0)
  end
  begin
     id 27 
     name rwrist
     direction -1 -4.48969e-011 1.61068e-026   
     length 1.46396   
     axis -9.31229e-015 -90 -90   XYZ
    dof ry
    limits (-180.0 0.0)
  end
  begin
     id 28
     name rhand
     direction -1 -4.49043e-011 3.22136e-026   
     length 0.784497   
     axis -2.0555e-014 -90 -90   XYZ
    dof rx rz
    limits (-90.0 90.0)
           (-45.0 45.0)
  end
  begin
     id 29
     name rfingers
     direction -1 -4.48823e-011 6.44272e-026   
     length 0.632482   
     axis -4.11101e-014 -90 -90   XYZ
    dof rx
    limits (0.0 90.0)
  end
  begin
     id 30
     name rthumb
     direction -0.707107 -6.34923e-011 0.707107   
     length 0.908121   
     axis -90 -45 -2.85299e-015   XYZ
    dof rx rz
    limits (-45.0 45.0)
           (-45.0 45.0)
  end
:hierarchy
  begin
    root lhipjoint rhipjoint lowerback
    lhipjoint lfemur
    lfemur ltibia
    ltibia lfoot
    lfoot ltoes
    rhipjoint rfemur
    rfemur rtibia
    rtibia rfoot
    rfoot rtoes
    lowerback upperback
    upperback thorax
    thorax lowerneck lclavicle rclavicle
    lowerneck upperneck
    upperneck head
    lclavicle lhumerus
    lhumerus lradius
    lradius lwrist
    lwrist lhand lthumb
    lhand lfingers
    rclavicle rhumerus
    rhumerus rradius
    rradius rwrist
    rwrist rhand rthumb
    rhand rfingers
  end

#!OML:ASF E:\Style6\Style6.ASF
:FULLY-SPECIFIED
:DEGREES
797
root -0.209384 17.8218 0.306306 33.4551 0.558639 -0.517996
lowerback 18.2347 -0.637783 8.00039
upperback -4.36998 1.36325 1.93116
thorax -15.2405 0.00186278 -2.75642
lowerneck -6.36193 2.15587 3.81628
upperneck -3.16242 2.58212 -11.226
head 0.337656 1.19212 -4.31614
rclavicle -8.74653e-015 1.19271e-014
rhumerus -68.031 -48.2791 -16.8466
rradius 68.8045
rwrist 171.166
rhand -6.83617 0.767683
rfingers 7.12502
rthumb 19.0284 -28.3215
lclavicle -8.74653e-015 1.19271e-014
lhumerus -58.9448 36.5706 33.1591
lradius 64.1035
lwrist 29.5958
lhand -23.83 32.7518
lfingers 7.12502
lthumb 2.64156 62.7152
rfemur -49.587 1.66248 20.4396
rtibia 28.2843
rfoot -6.57119 -11.217
rtoes -7.97207
lfemur -47.8379 -10.0191 -7.95816
ltibia 29.1392
lfoot -7.68137 15.4471
ltoes -15.2759
798
root -0.198868 17.8226 0.299566 33.4474 0.609409 -0.527017
lowerback 18.3586 -0.653286 7.90291
upperback -4.38537 1.3299 1.90819
thorax -15.3388 -0.00985193 -2.71846
lowerneck -6.28269 2.17048 3.85864
upperneck -3.32094 2.58644 -11.2853
head 0.27443 1.19986 -4.34706
rclavicle 1.59028e-015 -1.43125e-014
rhumerus -68.4123 -48.6754 -16.6934
rradius 68.9344
rwrist 171.122
rhand -6.40311 0.594239
rfingers 7.12502
rthumb 19.4448 -28.4535
lclavicle 1.59028e-015 -1.43125e-014
lhumerus -59.0458 36.6108 33.1578
lradius 63.873
lwrist 29.709
lhand -23.9696 31.9216
lfingers 7.12502
lthumb 2.50667 61.8866
rfemur -49.5643 1.67131 20.3939
rtibia 28.227
rfoot -6.54954 -11.2694
rtoes -8.32599
lfemur -47.9181 -10.0345 -7.96473
ltibia 29.2215
lfoot -7.59789 15.3802
ltoes -15.3983
799
root -0.188401 17.8236 0.294388 33.4536 0.722887 -0.561779
lowerback 18.4759 -0.67999 7.87806
upperback -4.41576 1.30055 1.89325
thorax -15.4509 -0.0267281 -2.71309
lowerneck -6.32627 2.19116 3.91223
upperneck -3.33459 2.60929 -11.3334
head 0.28161 1.20964 -4.37432
rclavicle 7.95139e-015 1.90833e-014
rhumerus -68.7785 -49.0625 -16.5362
rradius 69.0418
rwrist 171.033
rhand -6.03735 0.632097
rfingers 7.12502
rthumb 19.7965 -28.3798
lclavicle 7.95139e-015 1.90833e-014
lhumerus -59.2021 36.5043 33.2431
lradius 63.8671
lwrist 29.8278
lhand -24.3416 31.2291
lfingers 7.12502
lthumb 2.14745 61.1981
rfemur -49.5345 1.63203 20.4163
rtibia 28.1449
rfoot -6.50214 -11.3579
rtoes -8.2858
lfemur -48.0184 -10.0711 -7.91001
ltibia 29.3004
lfoot -7.60074 15.2652
ltoes -15.0086
800
root -0.177861 17.8253 0.289044 33.4683 0.897267 -0.631468
lowerback 18.5649 -0.720031 7.94708
upperback -4.44922 1.27031 1.8563
thorax -15.5487 -0.0538058 -2.78528
lowerneck -6.3841 2.21383 4.02772
upperneck -3.29417 2.63544 -11.355
head 0.309785 1.21881 -4.40399
rclavicle 1.70955e-014 -1.43125e-014
rhumerus -69.2822 -49.4346 -16.2933
rradius 69.1266
rwrist 171.022
rhand -5.98295 0.339882
rfingers 7.12502
rthumb 19.8487 -28.6666
lclavicle 1.70955e-014 -1.43125e-014
lhumerus -59.3674 36.5175 33.2028
lradius 64.0321
lwrist 29.8882
lhand -24.9199 30.791
lfingers 7.12502
lthumb 1.58896 60.7648
rfemur -49.5009 1.58066 20.4993
rtibia 28.0536
rfoot -6.45106 -11.4832
rtoes -8.36846
lfemur -48.1338 -10.0372 -7.84842
ltibia 29.3702
lfoot -7.61251 15.0905
ltoes -14.9468
801
root -0.16794 17.8275 0.284462 33.4241 1.06424 -0.734539
lowerback 18.6962 -0.748559 8.00437
upperback -4.46383 1.25981 1.8451
thorax -15.6482 -0.068922 -2.828
lowerneck -6.36854 2.20578 4.1149
upperneck -3.28645 2.61987 -11.3726
head 0.310103 1.2103 -4.42844
rclavicle -1.19271e-014 -4.77083e-014
rhumerus -69.7178 -49.7645 -16.0817
rradius 69.1401
rwrist 171.057
rhand -5.82067 0.12185
rfingers 7.12502
rthumb 20.0047 -28.8684
lclavicle -1.19271e-014 -4.77083e-014
lhumerus -59.4983 36.3805 33.2871
lradius 64.3307
lwrist 30.1776
lhand -25.2708 30.9061
lfingers 7.12502
lthumb 1.25 60.8822
rfemur -49.4016 1.58183 20.602
rtibia 27.9631
rfoot -6.36399 -11.6291
rtoes -8.79868
lfemur -48.1661 -9.95829 -7.78539
ltibia 29.4285
lfoot -7.6205 14.881
ltoes -14.7902
802
root -0.157975 17.8281 0.277546 33.4876 1.12364 -0.730564
lowerback 18.743 -0.737955 7.81778
upperback -4.51018 1.2387 1.86355
thorax -15.7371 -0.0637452 -2.69464
lowerneck -6.35532 2.19064 4.07822
upperneck -3.27075 2.60319 -11.3716
head 0.310725 1.20231 -4.42126
rclavicle -6.36111e-015 3.18055e-014
rhumerus -69.8996 -49.9614 -16.0183
rradius 69.1157
rwrist 170.95
rhand -5.67523 -0.0613435
rfingers 7.12502
rthumb 20.1445 -29.0369
lclavicle -6.36111e-015 3.18055e-014
lhumerus -59.6409 36.2788 33.4185
lradius 64.4708
lwrist 30.4781
lhand -25.0624 31.3335
lfingers 7.12502
lthumb 1.45126 61.3083
rfemur -49.4451 1.65275 20.5059
rtibia 27.8842
rfoot -6.32559 -11.765
rtoes -9.01028
lfemur -48.3051 -9.89342 -7.82791
ltibia 29.4696
lfoot -7.58359 14.7026
ltoes -14.6475
803
root -0.14739 17.8284 0.26943 33.5609 1.08651 -0.63857
lowerback 18.7991 -0.694746 7.56257
upperback -4.55128 1.23357 1.8093
thorax -15.8217 -0.04931 -2.61149
lowerneck -6.39145 2.16055 4.12213
upperneck -3.26159 2.5599 -11.4125
head 0.317995 1.17868 -4.4461
rclavicle -2.38542e-015 -1.66979e-014
rhumerus -70.1643 -50.129 -15.9774
rradius 69.1027
rwrist 170.768
rhand -5.37295 -0.311962
rfingers 7.12502
rthumb 20.435 -29.2567
lclavicle -2.38542e-015 -1.66979e-014
lhumerus -59.7236 36.3526 33.44
lradius 64.4861
lwrist 30.5264
lhand -24.3038 31.7985
lfingers 7.12502
lthumb 2.18397 61.7671
rfemur -49.5206 1.74578 20.2541
rtibia 27.8327
rfoot -6.40228 -11.8748
rtoes -7.90319
lfemur -48.4349 -9.79104 -8.03352
ltibia 29.505
lfoot -7.48038 14.5647
ltoes -14.7551
804
root -0.134526 17.8298 0.264359 33.496 1.04369 -0.615236
lowerback 18.9547 -0.676097 7.41959
upperback -4.53344 1.22571 1.73244
thorax -15.895 -0.0468069 -2.61834
lowerneck -6.45482 2.14816 4.21038
upperneck -3.27771 2.5352 -11.4287
head 0.323785 1.16389 -4.47021
rclavicle -8.34896e-015 -2.14687e-014
rhumerus -70.4368 -50.3849 -16.0212
rradius 69.1254
rwrist 170.73
rhand -5.11927 -0.318588
rfingers 7.12502
rthumb 20.6788 -29.2369
lclavicle -8.34896e-015 -2.14687e-014
lhumerus -59.7711 36.348 33.4717
lradius 64.5423
lwrist 30.5799
lhand -23.8752 32.0963
lfingers 7.12502
lthumb 2.59785 62.0603
rfemur -49.4632 1.77102 20.1463
rtibia 27.8287
rfoot -6.47655 -11.8725
rtoes -7.33719
lfemur -48.3934 -9.70766 -8.18718
ltibia 29.5325
lfoot -7.49454 14.4117
ltoes -14.3876
805
root -0.12099 17.8302 0.261037 33.4364 1.11143 -0.662164
lowerback 19.0602 -0.707738 7.35211
upperback -4.4944 1.17627 1.74693
thorax -15.9181 -0.0615728 -2.5489
lowerneck -6.59411 2.17141 4.12468
upperneck -3.24123 2.57353 -11.3727
head 0.361187 1.17938 -4.43036
rclavicle -1.59028e-015 -2.94201e-014
rhumerus -70.4396 -50.6627 -16.1326
rradius 69.0186
rwrist 170.666
rhand -5.0909 -0.437462
rfingers 7.12502
rthumb 20.7061 -29.3529
lclavicle -1.59028e-015 -2.94201e-014
lhumerus -59.9112 36.3998 33.5285
lradius 64.6318
lwrist 30.6129
lhand -24.0389 32.2629
lfingers 7.12502
lthumb 2.43981 62.2287
rfemur -49.4134 1.66182 20.2416
rtibia 27.8487
rfoot -6.36539 -11.8569
rtoes -8.88327
lfemur -48.3779 -9.63055 -8.24169
ltibia 29.584
lfoot -7.47285 14.2501
ltoes -14.6172
